<svg width="92" height="106" viewBox="0 0 92 106" fill="none" xmlns="http://www.w3.org/2000/svg">
<path d="M32.32 63.73C15.08 63.99 0.439998 49.57 0.559998 31.79C0.679998 14.55 14.9 0.23999 32.16 0.23999C49.83 0.23999 64.02 14.45 64.01 32.16C64.01 49.62 49.84 63.74 32.32 63.73Z" fill="#D8D8D8"/>
<path d="M9.43999 65.62C22.15 74.65 35.85 78.66 50.84 78.58C65.7 78.5 79.44 74.88 91.92 65.6C91.92 68.36 92.04 70.72 91.84 73.05C91.79 73.68 90.85 74.35 90.19 74.81C81.99 80.62 72.91 84.28 63 85.88C50.73 87.85 38.67 87.16 26.89 83.07C21.12 81.07 15.79 78.2 10.83 74.63C9.78998 73.88 9.35998 73.08 9.42998 71.82C9.50998 69.93 9.43999 68.03 9.43999 65.62Z" fill="#ADADAD"/>
<path d="M7.24002 96.71L7.17004 104.76L6.27002 104.75L6.34003 96.7L7.24002 96.71Z" fill="#C8C8C8"/>
<path d="M9.92999 97.84L7.89001 97.82L7.89999 96.71L12.88 96.75L12.87 97.86L10.83 97.84L10.77 104.78L9.85999 104.77L9.92999 97.84Z" fill="#C8C8C8"/>
<path d="M14.4 96.78L14.36 101.35C14.34 103.36 15.12 103.92 15.91 103.92C16.84 103.93 17.42 103.29 17.43 101.37L17.47 96.8L18.37 96.81L18.33 101.39C18.31 103.97 17.37 105.03 15.86 105.01C14.37 105 13.42 103.93 13.45 101.42L13.49 96.77L14.4 96.78Z" fill="#C8C8C8"/>
<path d="M24.61 102.51C24.3 103.9 23.59 105.08 22 105.06C20.16 105.04 19.2 103.14 19.22 100.85C19.24 98.57 20.34 96.65 22.12 96.67C23.72 96.68 24.47 97.97 24.65 99.3L23.73 99.29C23.53 98.54 23.13 97.76 22.1 97.75C20.9 97.74 20.19 99.05 20.17 100.81C20.15 102.55 20.83 103.97 22.05 103.98C23.02 103.99 23.42 103.39 23.7 102.5L24.61 102.51Z" fill="#C8C8C8"/>
<path d="M32.56 102.58C32.25 103.97 31.54 105.15 29.95 105.13C28.11 105.11 27.15 103.21 27.17 100.92C27.19 98.64 28.29 96.72 30.07 96.73C31.67 96.74 32.42 98.03 32.6 99.36L31.68 99.35C31.48 98.6 31.08 97.82 30.05 97.81C28.85 97.8 28.14 99.11 28.12 100.87C28.1 102.61 28.78 104.03 30 104.04C30.97 104.05 31.37 103.45 31.65 102.56L32.56 102.58Z" fill="#C8C8C8"/>
<path d="M33.91 102.64C34.09 103.53 34.53 104.14 35.56 104.15C36.58 104.16 36.95 103.6 36.96 102.91C36.97 102.18 36.68 101.73 35.34 101.38C33.65 100.94 33.27 100.14 33.28 99.05C33.29 97.59 34.24 96.79 35.45 96.8C37.25 96.82 37.67 98.2 37.73 99.04L36.82 99.03C36.72 98.52 36.51 97.83 35.42 97.82C34.67 97.81 34.21 98.18 34.2 98.92C34.19 99.53 34.41 99.91 35.6 100.22C37.59 100.74 37.9 101.65 37.89 102.78C37.88 104.09 37.17 105.19 35.48 105.17C33.91 105.16 33.15 104.1 32.99 102.62L33.91 102.64Z" fill="#C8C8C8"/>
<path d="M39.8 97L39.73 105.05L38.83 105.04L38.9 96.99L39.8 97Z" fill="#C8C8C8"/>
<path d="M43.98 97.04L43.91 105.09L43.01 105.08L43.08 97.03L43.98 97.04Z" fill="#C8C8C8"/>
<path d="M50.37 105.15L49.69 105.14C49.66 104.94 49.64 104.38 49.63 104.04C49.26 104.84 48.7301 105.31 47.6701 105.3C45.9401 105.28 44.92 103.58 44.94 101.11C44.96 98.74 46.06 96.89 47.9 96.91C49.56 96.92 50.26 98.2 50.44 99.39L49.52 99.38C49.34 98.71 48.9101 97.99 47.8901 97.98C46.5901 97.97 45.9101 99.32 45.8901 101.05C45.8701 102.87 46.5401 104.22 47.8201 104.23C48.9101 104.24 49.5 103.43 49.52 101.99V101.78L47.86 101.77L47.87 100.68L50.4 100.7L50.37 105.15Z" fill="#C8C8C8"/>
<path d="M51.56 97.11L54.28 97.13C55.48 97.14 56.07 97.96 56.06 99.18C56.05 100.17 55.6 100.7 55.18 100.89C55.68 101.1 56.26 101.64 56.25 102.83C56.24 104.42 55.36 105.19 54.23 105.18L51.49 105.16L51.56 97.11ZM52.39 104.12L54.07 104.13C54.68 104.14 55.29 103.87 55.3 102.81C55.31 101.92 54.85 101.47 54.05 101.46L52.42 101.45L52.39 104.12ZM54.03 100.41C54.77 100.42 55.11 100.02 55.11 99.31C55.12 98.46 54.66 98.19 54.07 98.18L52.43 98.17L52.41 100.4L54.03 100.41Z" fill="#C8C8C8"/>
</svg>
