<svg width="120" height="116" viewBox="0 0 120 116" fill="none" xmlns="http://www.w3.org/2000/svg">
<path d="M98.75 25.35C97.95 26.73 97.32 28.25 96.29 29.44C95.51 30.35 95.52 31.04 95.86 32.01C96.56 34.02 97.21 36.05 97.86 38.07C98.01 38.55 98.1 39.06 98.22 39.55C98.72 39.29 99.25 39.07 99.72 38.76C101.44 37.63 103.17 36.5 104.83 35.29C105.25 34.98 105.58 34.39 105.7 33.87C106.01 32.56 106.21 31.21 106.39 29.87C106.61 28.21 106.77 26.54 106.96 24.88C107.17 23.04 107.81 22.59 109.66 22.73C110.93 22.83 112.22 22.75 113.5 22.73C114.15 22.72 114.8 22.6 115.43 22.67C115.84 22.72 116.42 22.91 116.58 23.22C117.12 24.28 118.1 24.94 118.77 25.85C120.76 28.6 119.69 31.13 116.71 32.78C116.18 33.07 115.95 33.33 115.81 33.85C115.33 35.65 114.58 37.22 112.64 37.95C112.04 38.18 111.35 38.72 112.19 39.56C112.27 39.64 112.02 40.12 111.85 40.35C111.36 41.03 110.76 41.64 110.32 42.34C108.79 44.79 106.37 46.39 104.53 48.54C102.13 51.33 99.61 54.01 97.14 56.74C96.22 57.76 95.53 58.89 95.07 60.2C93.54 64.56 91.3 68.57 88.45 72.18C86.09 75.17 83.33 77.82 80.27 80.12C75.63 83.61 70.5 86.11 64.87 87.55C60.92 88.56 56.89 89.12 52.8 88.96C42.52 88.57 33.28 85.25 25.45 78.57C18.35 72.51 13.54 64.91 11.28 55.76C10.41 52.23 9.85001 48.68 9.89001 45.05C9.92001 41.56 10.42 38.13 11.21 34.72C12.41 29.55 14.57 24.84 17.54 20.49C23.3 12.04 31.1 6.32999 40.79 3.06999C45.26 1.56999 49.84 0.909991 54.49 0.989991C64.26 1.15999 73.1 4.20999 80.81 10.3C81.25 10.65 81.62 10.99 81.92 10.17C82.2 9.40999 82.85 9.35999 83.53 9.45999C85.25 9.69999 86.97 9.95999 88.69 10.18C89.27 10.26 89.58 10.57 89.82 11.09C90.05 11.6 90.35 12.13 90.76 12.49C91.82 13.42 91.34 14.69 91.51 15.78C91.58 16.21 90.87 16.78 90.47 17.25C90.22 17.55 89.91 17.79 89.62 18.04C89.16 18.45 89.11 18.79 89.51 19.35C90.37 20.55 91.13 21.83 91.9 23.09C92.22 23.61 92.48 23.85 93.1 23.4C95.72 21.5 97.77 19.18 98.94 16.11C99.31 15.15 99.83 14.25 100.26 13.31C100.59 12.59 101.14 12.38 101.85 12.58C103.09 12.93 104.33 13.3 105.54 13.72C105.88 13.84 106.28 14.1 106.41 14.4C106.77 15.22 107.07 16.08 107.25 16.95C107.56 18.47 107.26 19.03 105.81 19.72C104.87 20.16 103.89 20.5 103.36 21.5C103.28 21.66 103.1 21.83 102.93 21.87C101.2 22.27 100.3 23.62 99.35 24.93C99.21 25.12 98.94 25.22 98.73 25.36C99.43 23.8 99.98 22.18 101.96 21.64C102.49 21.5 103.1 20.7 103.2 20.12C103.3 19.52 102.93 18.83 102.04 18.62C101.61 18.52 101.27 17.97 100.91 17.61C100.86 17.56 100.86 17.35 100.92 17.31C101 17.24 101.22 17.2 101.25 17.24C102.18 18.58 103.29 18.08 104.44 17.62C104.78 17.49 105.21 17.6 105.59 17.54C105.88 17.49 106.15 17.34 106.43 17.23C106.21 16.95 106.06 16.58 105.77 16.41C104.62 15.7 103.41 15.87 102.26 16.38C101.36 16.78 101.08 16.46 101.07 15.61C101.42 15.74 101.75 15.96 102.01 15.43C102.43 14.58 103.43 15.02 104.06 14.59C104.24 14.86 104.36 15.27 104.6 15.35C104.88 15.44 105.26 15.25 105.6 15.17C105.48 14.85 105.45 14.36 105.23 14.26C104.66 13.99 104 13.9 103.38 13.74C101.08 13.17 101.08 13.17 101.1 15.64C101.01 15.55 100.89 15.48 100.84 15.37C100.72 15.15 100.64 14.91 100.54 14.68C100.36 14.82 100.08 14.93 100 15.12C99.47 16.36 98.96 17.6 98.48 18.86C98.41 19.04 98.54 19.34 98.65 19.55C98.83 19.89 99.27 20.35 98.39 20.03C97.79 19.82 97.5 20.03 97.09 20.45C95.92 21.64 94.73 22.82 93.42 23.84C91.5 25.35 89.43 26.66 87.52 28.17C86.04 29.33 84.4 29.87 82.56 30.04C81.16 30.17 79.77 30.46 78.39 30.73C77.98 30.81 77.54 31.02 77.22 31.3C75.98 32.42 74.84 33.64 73.56 34.71C72.91 35.26 72.74 35.64 73.09 36.47C73.62 37.76 74.42 38.99 74.32 40.48C73.73 39.21 73.15 37.93 72.54 36.67C72.42 36.42 72.11 36.06 71.95 36.08C71.7 36.12 71.31 36.45 71.3 36.67C71.23 38.1 70.17 38.42 69.11 38.77C68.31 39.03 67.39 39.07 66.73 39.51C65.07 40.62 63.52 41.89 61.95 43.12C61.78 43.25 61.6 43.68 61.67 43.74C62.71 44.79 62.19 46.35 62.93 47.51C63.37 48.21 63.12 48.88 62.55 49.43C62.27 49.7 62.01 50.05 61.68 50.19C60.61 50.62 60.83 51.28 61.24 52.03C61.39 52.31 61.52 52.62 61.61 52.92C61.86 53.75 62.4 54.15 63.27 54.29C64.02 54.41 64.72 54.75 65.46 54.95C65.95 55.08 66.47 55.22 66.96 55.17C68.75 54.97 70.53 54.68 72.32 54.46C72.97 54.38 73.26 54.08 73.12 53.44C72.96 52.68 72.48 53.03 72.08 53.16C70.65 53.63 69.19 53.83 67.69 53.65C67.48 53.63 67.29 53.44 67.09 53.32C67.28 53.19 67.45 52.98 67.66 52.94C69.11 52.65 70.58 52.48 72 52.09C73.72 51.62 73.69 51.55 73.93 53.42C73.95 53.59 74.09 53.74 74.17 53.89C74.31 53.79 74.56 53.71 74.59 53.58C75.06 51.64 75.72 49.72 75.38 47.68C75.18 46.47 74.92 45.28 74.74 44.07C74.56 42.86 74.44 41.65 74.3 40.44C74.46 40.71 74.63 40.97 74.76 41.25C74.98 41.71 75.16 42.19 75.36 42.66C75.65 42.29 75.91 41.87 76.25 41.55C76.62 41.2 77.03 40.88 77.48 40.66C78.34 40.23 79.27 39.92 80.12 39.47C82.62 38.14 85.07 36.69 87.6 35.41C91.66 33.35 94.95 30.46 97.51 26.7C97.84 26.22 98.33 25.81 98.75 25.35ZM108.81 42.45C109.2 42.04 109.61 41.64 109.98 41.2C110.34 40.78 110.14 40.62 109.67 40.41C108.8 40.02 107.94 39.55 107.17 38.99C106.2 38.28 105.32 37.44 104.4 36.66C103.37 37.32 102.33 37.96 101.33 38.66C100.79 39.05 100.33 39.55 99.83 40C100.4 40.3 100.95 40.62 101.54 40.89C103.42 41.74 105.34 42.48 107.16 43.43C107.79 43.76 108.05 43.72 108.37 43.21C108.54 42.95 108.68 42.67 108.84 42.4L108.81 42.45ZM105.35 43.57C105.01 43.36 104.77 43.16 104.49 43.05C103.18 42.51 101.83 42.06 100.54 41.46C99.48 40.97 98.59 41.01 97.74 41.82C97.56 42 97.35 42.16 97.14 42.31C93.81 44.63 90.53 47.05 87.11 49.23C85.06 50.54 82.77 51.5 80.58 52.59C76.67 54.55 72.58 55.83 68.19 56.05C66.7 56.12 66.7 56.13 67.34 57.58C67.47 57.87 67.59 58.17 67.68 58.48C67.71 58.58 67.6 58.82 67.57 58.81C67.41 58.8 67.18 58.78 67.11 58.68C66.87 58.3 66.72 57.87 66.48 57.49C65.88 56.54 65.09 55.77 64.02 55.39C63.76 55.3 63.43 55.44 63.13 55.47C63.2 55.71 63.21 55.98 63.34 56.19C64.5 58.13 65.68 60.06 66.85 61.99C68.75 65.14 70.64 68.29 72.56 71.43C73.19 72.46 73.35 72.46 74.41 71.84C78.09 69.66 81.4 67 84.56 64.13C86.47 62.4 88.47 60.77 90.45 59.11C90.54 59.03 90.77 59.1 90.93 59.1C90.9 59.28 90.95 59.53 90.84 59.63C90.14 60.3 89.39 60.91 88.71 61.59C84.46 65.82 80.33 70.19 75.12 73.32C74.15 73.9 74.19 74.02 74.81 75C76.29 77.35 76.34 77.39 78.32 75.37C82.39 71.22 86.47 67.08 90.42 62.82C95.3 57.57 100.05 52.21 104.85 46.9C105.46 46.23 106.02 45.53 106.58 44.82C106.66 44.72 106.65 44.43 106.56 44.34C106.47 44.25 106.17 44.23 106.08 44.31C105.55 44.78 105.05 45.29 104.55 45.79C103.22 47.11 101.89 48.42 100.54 49.73C100.42 49.84 100.23 49.88 100.08 49.95C100.11 49.78 100.09 49.59 100.17 49.46C100.3 49.24 100.5 49.07 100.68 48.88C102.02 47.39 103.36 45.91 104.7 44.41C104.9 44.18 105.08 43.92 105.35 43.57ZM53.67 88.2C56.11 87.87 58.41 87.74 60.64 86.95C63.79 85.84 66.88 84.39 70.25 84.12C72.65 83.92 73.94 82.47 74.99 80.63C75.75 79.29 75.68 77.91 74.78 76.61C74.08 75.6 73.37 74.6 72.74 73.56C70.36 69.64 68.02 65.71 65.65 61.79C65.54 61.6 65.31 61.49 65.14 61.33C65.15 61.58 65.11 61.84 65.17 62.07C65.49 63.19 65.93 64.27 66.14 65.41C66.44 67.01 65.88 67.9 64.32 68.31C63.21 68.6 62.04 68.78 60.89 68.78C59.48 68.78 58.06 68.62 56.66 68.41C52.64 67.79 48.89 66.54 45.93 63.55C45.2 62.82 44.42 62.14 43.65 61.45C43.41 61.24 43.14 61.05 42.86 60.91C42.8 60.88 42.52 61.08 42.53 61.16C42.55 61.41 42.64 61.66 42.72 61.9C44.06 65.79 45.42 69.69 46.74 73.59C46.9 74.07 47.03 74.61 46.99 75.1C46.85 76.83 46.65 78.56 46.42 80.29C46.19 82.01 45.85 83.72 45.64 85.45C45.47 86.9 45.56 87.07 46.91 87.3C49.2 87.66 51.51 87.91 53.67 88.2ZM35.84 56.89C34.18 56.69 32.94 56.98 31.75 57.56C30.76 58.04 29.79 58.59 28.76 58.95C27.48 59.4 26.75 60.34 26.25 61.48C25.52 63.17 25.25 64.94 25.57 66.78C25.69 67.48 25.74 68.19 25.82 68.89C26.18 71.83 26.58 74.77 26.9 77.72C26.99 78.5 27.31 78.97 27.94 79.43C32.54 82.81 37.64 85.04 43.18 86.32C43.41 86.37 43.65 86.33 43.89 86.33C43.82 86.1 43.82 85.82 43.69 85.64C42.54 84.01 41.37 82.39 40.2 80.77C39.94 80.41 39.63 80.07 39.4 79.69C39.33 79.58 39.4 79.28 39.51 79.19C39.61 79.11 39.86 79.17 40.02 79.24C40.19 79.32 40.34 79.46 40.47 79.6C41.59 80.85 42.7 82.11 43.82 83.36C43.93 83.49 44.11 83.56 44.25 83.65C44.27 83.46 44.32 83.27 44.29 83.09C44.25 82.84 44.15 82.59 44.07 82.35C42.99 78.84 42.06 75.27 40.17 72.06C39.91 71.62 39.69 71.14 39.51 70.66C39.46 70.53 39.53 70.25 39.64 70.17C39.75 70.09 40.01 70.13 40.15 70.22C40.3 70.32 40.42 70.5 40.5 70.68C41.52 72.83 42.55 74.99 43.56 77.14C44.02 78.13 44.45 79.14 44.92 80.13C44.99 80.29 45.18 80.39 45.31 80.52C45.39 80.31 45.49 80.11 45.53 79.89C45.63 79.32 45.68 78.74 45.77 78.17C46.08 76.11 46.23 74.09 45.33 72.09C44.75 70.8 44.46 69.39 43.97 68.05C43.09 65.62 42.24 63.18 41.25 60.8C40.2 58.32 38.8 56.17 35.84 56.89ZM25.11 60.23C24.86 57.47 24.87 55.18 24.39 52.99C23.6 49.41 22.51 45.88 20.78 42.62C18.99 39.25 19.45 39.42 15.54 39.81C12.48 40.12 10.93 41.4 10.66 45C10.61 45.7 10.59 46.44 10.75 47.13C11.49 50.46 12.16 53.82 13.09 57.09C14.35 61.51 16.33 65.65 18.81 69.53C20.13 71.59 21.35 73.74 23.28 75.33C23.73 75.7 24.22 76 24.69 76.34C24.68 75.81 24.69 75.27 24.66 74.74C24.59 73.06 24.47 71.39 24.44 69.71C24.41 67.98 24.4 66.24 24.53 64.52C24.64 62.91 24.95 61.34 25.11 60.23ZM86.28 17.47C84.73 17.54 83.91 16.82 83.1 16.09C83.03 16.03 82.99 15.81 83.03 15.76C83.15 15.63 83.35 15.45 83.47 15.48C83.84 15.57 84.24 15.68 84.53 15.9C85.43 16.59 86.23 16.54 87.17 15.89C88.06 15.27 89.05 14.74 90.23 14.88C90.41 14.9 90.76 14.65 90.77 14.5C90.78 14.3 90.6 14.01 90.41 13.89C89.18 13.08 87.84 13.2 86.48 13.47C85.98 13.57 85.48 13.73 84.97 13.74C84.81 13.74 84.48 13.33 84.51 13.14C84.55 12.85 84.77 12.48 85.02 12.36C85.73 12.03 86.49 11.81 87.24 11.56C87.25 11.56 87.36 11.76 87.37 11.87C87.39 12.04 87.37 12.22 87.37 12.4C87.92 12.35 88.48 12.34 89.02 12.22C89.15 12.19 89.32 11.66 89.25 11.59C88.91 11.24 88.5 10.97 88.1 10.68C88.06 10.65 87.97 10.67 87.91 10.67C86.37 10.54 84.84 10.4 83.3 10.27C82.6 10.21 82.28 10.57 82.58 11.19C83.09 12.22 83.7 13.21 84.25 14.22C84.3 14.31 84.28 14.48 84.22 14.55C84.17 14.61 83.94 14.62 83.91 14.57C83.42 13.91 82.95 13.23 82.49 12.55C82.38 12.4 82.32 12.21 82.23 12.05C82.14 12.22 82.03 12.38 81.98 12.56C81.5 14.1 80.98 15.62 80.58 17.18C80.39 17.9 80.24 18.75 81.21 19.19C81.29 19.23 81.28 19.48 81.31 19.63C81.14 19.65 80.96 19.7 80.79 19.68C80.41 19.65 80.17 19.12 79.63 19.66C78.82 20.46 77.85 21.12 76.88 21.73C74.7 23.11 72.44 24.35 70.29 25.77C67.3 27.76 64.59 30.26 60.77 30.61C60.65 30.62 60.53 30.73 60.41 30.74C59.78 30.8 59.61 31.25 59.43 31.77C59.22 32.35 59.17 32.84 59.5 33.41C60.35 34.85 61.13 36.34 61.95 37.8C62.22 38.28 62.47 38.81 61.87 39.15C60.88 39.7 61.3 40.4 61.53 41.13C61.82 42.02 61.82 42.05 62.6 41.51C66.03 39.11 69.51 36.76 72.85 34.24C74.43 33.05 75.74 31.5 77.15 30.1C77.34 29.91 77.55 29.4 77.48 29.35C76.85 28.8 77.38 28.42 77.64 28.04C78.22 27.19 78.78 26.3 79.49 25.56C80.99 24.02 82.15 22.05 84.48 21.52C84.84 21.44 85.18 21.19 85.49 20.97C86.77 20.1 87.03 19.43 86.63 17.92C86.58 17.68 86.3 17.49 86.28 17.47ZM59.39 67.82C60.83 67.75 61.79 67.74 62.74 67.65C65.26 67.4 65.61 66.87 64.9 64.43C64.78 64 64.56 63.61 64.39 63.19C64.1 63.52 63.83 63.87 63.51 64.16C63.35 64.3 63.09 64.33 62.87 64.4C62.87 64.17 62.81 63.92 62.89 63.72C63.01 63.42 63.18 63.13 63.4 62.9C64.03 62.22 63.93 61.46 63.62 60.72C62.34 57.62 61.02 54.53 59.73 51.43C59.51 50.9 59.17 50.67 58.57 50.59C56.08 50.25 53.58 49.91 51.25 48.86C50.82 48.67 50.61 48.93 50.78 49.33C51.51 51.12 52.29 52.89 53.02 54.68C53.75 56.47 54.45 58.27 55.16 60.08C55.23 60.25 55.25 60.46 55.23 60.64C55.22 60.75 55.11 60.9 55.02 60.93C54.93 60.96 54.75 60.89 54.7 60.81C54.59 60.66 54.55 60.46 54.47 60.29C52.67 56.29 50.88 52.29 49.08 48.29C48.87 47.82 48.63 47.36 48.38 46.91C48.3 46.77 48.13 46.69 48 46.58C47.97 46.76 47.9 46.95 47.91 47.13C47.92 47.52 47.94 47.91 48.02 48.29C49.03 52.88 50.03 57.48 51.09 62.06C51.45 63.63 51.58 63.62 53.17 63.81C54.45 63.96 55.71 64.2 56.98 64.44C57.18 64.48 57.35 64.71 57.54 64.86C57.33 64.93 57.12 65.07 56.92 65.05C55.57 64.9 54.24 64.69 52.89 64.57C52.57 64.54 52.23 64.77 51.9 64.89C52.05 65.29 52.13 65.74 52.37 66.07C52.53 66.29 52.92 66.38 53.23 66.45C55.42 66.95 57.62 67.43 59.39 67.82ZM59.58 49.73C60.77 49.76 62.07 48.97 62.14 48.31C62.25 47.43 61.27 46.2 60.32 45.92C59.53 45.69 58.74 45.41 57.97 45.1C57.51 44.92 57.46 44.54 57.77 44.18C58.47 43.36 59.22 42.58 59.91 41.75C60.13 41.49 60.22 41.13 60.37 40.82C60.03 40.8 59.68 40.72 59.35 40.77C58.33 40.93 57.54 40.38 57.57 39.38C57.58 39.1 57.96 38.83 58.17 38.56C58.3 38.79 58.55 39.02 58.55 39.24C58.53 39.91 58.69 40.12 59.31 39.72C59.63 39.51 59.97 39.31 60.28 39.09C61.17 38.46 61.2 38.36 60.65 37.36C60.09 36.34 59.53 35.33 58.93 34.34C58.35 33.38 57.84 32.5 58.57 31.33C58.91 30.78 58.53 30.4 57.79 30.45C57.41 30.47 57.02 30.54 56.66 30.66C55.31 31.1 53.9 31.41 52.66 32.05C50.2 33.31 47.84 34.76 45.43 36.13C45.07 36.34 44.73 36.61 45.09 37.03C45.72 37.77 45.41 38.21 44.82 38.81C44.2 39.45 44.56 40.68 45.32 40.57C46.56 40.4 46.67 41.23 47.06 41.9C47.65 42.9 48.15 43.96 48.81 44.9C50.13 46.79 51.74 48.35 54.12 48.81C56 49.17 57.91 49.45 59.58 49.73ZM35.7 34.14C35.72 34.06 35.74 33.99 35.75 33.91C36.2 33.91 36.65 33.93 37.1 33.9C37.27 33.89 37.48 33.78 37.59 33.65C38.56 32.44 37.88 30.48 36.35 30.06C35.95 29.95 35.56 29.81 35.16 29.68C35.33 29.27 35.49 28.86 35.69 28.46C35.86 28.11 36.07 27.79 36.26 27.45C36.7 26.68 36.7 26.62 35.77 26.49C35.1 26.4 34.96 25.9 34.82 25.44C34.78 25.31 35.17 25.03 35.39 24.86C35.42 24.84 35.67 25.08 35.77 25.23C35.81 25.3 35.73 25.45 35.7 25.56C36.11 25.45 36.55 25.4 36.9 25.19C37.08 25.08 37.24 24.62 37.15 24.43C36.63 23.32 36.01 22.26 35.49 21.16C35.28 20.72 35.01 20.14 35.13 19.72C35.65 17.93 34.51 16.65 33.87 15.23C33.77 15 33.22 14.86 32.89 14.88C32.46 14.91 32.04 15.14 31.62 15.29C29.98 15.86 28.33 16.4 26.71 17C25.51 17.45 24.32 17.95 23.15 18.46C22.36 18.8 22.13 19.42 22.48 20.2C22.98 21.31 23.51 22.41 24.06 23.5C24.33 24.04 24.62 24.52 23.97 25.02C23.35 25.5 23.69 26.07 24.16 26.24C25.17 26.6 25.67 27.32 26.06 28.23C26.24 28.64 26.46 29.04 26.71 29.41C27.59 30.69 28.43 32.08 29.96 32.6C31.83 33.25 33.78 33.65 35.7 34.14ZM43.88 37.11C43.59 37.23 43.47 37.26 43.36 37.33C40.99 38.71 39 40.37 38.96 43.43C38.96 43.75 38.93 44.08 38.87 44.39C38.17 48 38.8 51.58 39.2 55.16C39.26 55.68 39.56 56.36 39.97 56.61C42.26 58.02 43.94 60.08 45.87 61.88C47.23 63.15 48.72 64.28 50.17 65.46C50.3 65.56 50.51 65.55 50.69 65.6C50.7 65.43 50.75 65.24 50.71 65.08C50.09 62.32 49.43 59.57 48.84 56.8C48.21 53.85 47.65 50.88 47.05 47.92C46.69 46.16 46.34 44.39 45.94 42.63C45.87 42.3 45.63 41.97 45.38 41.74C44.84 41.22 44.14 40.84 43.69 40.25C43.04 39.4 43.69 38.71 44.16 38C44.27 37.83 43.99 37.42 43.88 37.11ZM27.58 41.98C28.48 41.98 29.39 41.96 30.29 42C30.54 42.01 30.78 42.22 31.02 42.34C30.82 42.47 30.63 42.67 30.41 42.72C30.1 42.79 29.77 42.77 29.45 42.77C28.22 42.78 26.99 42.76 25.77 42.79C24.71 42.81 24.71 42.84 25.2 43.68C26.44 45.82 28.38 46.81 30.77 47.02C31.73 47.1 32.71 47.12 33.67 47.14C34.74 47.17 35.82 47.17 36.89 47.18C37 46.11 37.11 45.04 37.22 43.97C37.23 43.84 37.31 43.68 37.26 43.59C37 43.11 36.5 42.65 36.49 42.17C36.48 41.7 37.42 41.59 37.36 40.82C37.29 39.92 37.41 39.01 37.39 38.11C37.33 35.55 36.39 34.69 33.83 34.26C31.82 33.93 29.75 33.58 28.1 32.17C27.92 32.02 27.71 31.92 27.52 31.79C27.55 32.03 27.53 32.28 27.61 32.5C28.32 34.44 29.07 36.36 29.76 38.3C29.86 38.59 29.83 39.17 29.65 39.27C29.16 39.56 28.78 39.17 28.6 38.74C28.28 37.97 28.03 37.17 27.76 36.37C26.91 33.87 26.06 31.37 25.19 28.87C25.12 28.67 24.9 28.53 24.75 28.36C24.72 28.55 24.67 28.74 24.66 28.93C24.55 31.59 24.17 34.19 22.88 36.57C22.63 37.02 22.37 37.47 22.07 37.88C21.6 38.54 21.55 39.05 22.15 39.75C24 41.92 23.96 41.95 26.81 41.96C27.06 41.98 27.32 41.98 27.58 41.98ZM38.1 39.8C38.15 39.81 38.21 39.82 38.26 39.83C38.29 40.08 38.32 40.34 38.35 40.59C38.57 40.39 38.82 40.21 38.99 39.98C40.25 38.21 41.83 36.84 43.81 35.91C44.56 35.56 45.24 35.04 45.93 34.56C48.96 32.45 52.1 30.56 55.76 29.75C56.39 29.61 56.99 29.35 57.62 29.23C58.31 29.09 58.51 28.73 58.19 28.14C57.8 27.4 57.4 26.66 56.92 25.98C55.15 23.5 52.8 22.48 49.73 22.95C47.69 23.26 45.87 24.07 44.2 25.14C42.01 26.55 40.07 28.34 39.53 31.05C38.95 33.94 38.57 36.88 38.1 39.8ZM37.08 52.31C37.08 51.92 37.08 51.53 37.08 51.15C37.08 50.7 37.09 50.25 37.08 49.79C37.05 48.3 37.05 48.25 35.59 48.29C33.31 48.35 31.08 48.06 28.88 47.51C27.55 47.18 26.39 46.57 25.6 45.32C24.67 43.86 23.6 42.48 22.54 41.1C22.03 40.44 21.45 39.82 20.83 39.26C20.66 39.1 20.26 39.19 19.96 39.17C19.94 39.45 19.8 39.82 19.92 40C21.51 42.24 22.47 44.76 23.36 47.32C24.6 50.9 26.36 54.33 26.25 58.27C26.23 59.11 26.46 59.17 27.16 58.79C28.07 58.3 28.93 57.7 29.88 57.33C31.95 56.52 33.94 55.25 36.35 55.91C36.82 56.04 37.06 55.69 37.06 55.23C37.09 54.25 37.08 53.28 37.08 52.31ZM67.78 17.09C68.02 16.04 67.72 15.17 67.13 14.11C66.79 13.5 66.38 13.3 65.71 13.54C63.6 14.31 61.42 14.94 59.37 15.84C56.72 17 56.76 17.11 58.05 19.66C58.2 19.95 58.4 20.22 58.49 20.52C58.58 20.8 58.68 21.17 58.57 21.42C58.27 22.1 58.4 22.45 59.11 22.76C59.46 22.91 59.65 23.43 59.9 23.79C60.48 24.64 61 25.54 61.64 26.33C62.6 27.5 64.96 28.26 65.98 27.73C66.83 27.28 67.61 26.7 68.39 26.13C68.53 26.03 68.63 25.59 68.58 25.55C67.54 24.78 68.4 24.24 68.78 23.63C69.12 23.09 69.16 22.67 68.34 22.61C68.2 22.6 68.07 22.37 67.94 22.25C68.11 22.13 68.27 21.97 68.46 21.9C69.78 21.44 69.79 21.44 69.15 20.18C68.95 19.78 68.67 19.41 68.49 19C68.22 18.37 68.01 17.73 67.78 17.09ZM106.23 35.22C106.14 35.61 105.87 36.1 106.01 36.32C106.47 37.01 107.03 37.65 107.65 38.21C108.71 39.18 108.85 39.14 110.12 38.25C110.27 38.14 110.45 38 110.62 37.99C111.78 37.96 112.54 37.09 113.4 36.54C114.08 36.1 114.4 35.09 114.86 34.32C115.28 33.61 114.33 33.57 114.24 33.11C114.21 32.98 114.19 32.85 114.19 32.73C114.2 31.91 114.09 31.38 113.16 32.13C112.64 32.54 112.07 32.42 111.53 32.09C111.14 31.86 110.76 31.61 110.38 31.37C109.92 31.08 109.03 30.96 109.38 30.26C109.53 29.97 110.53 30.06 111.15 30.07C111.37 30.07 111.62 30.29 111.79 30.47C112.34 31.04 112.85 31.03 113.47 30.54C114.79 29.49 116.24 28.66 117.88 28.19C118.13 28.12 118.47 27.79 118.47 27.58C118.47 27.36 118.15 27.05 117.9 26.93C116.07 26.03 112.7 26.66 111.31 28.32C110.71 29.04 110.24 28.99 109.73 28.51C109.18 27.99 108.78 27.31 108.3 26.7C108.19 26.56 108.02 26.46 107.88 26.35C107.82 26.52 107.72 26.68 107.69 26.85C107.42 28.82 107.19 30.8 106.9 32.77C106.74 33.8 107.04 34.52 108.03 34.93C108.13 34.97 108.21 35.29 108.16 35.4C108.09 35.54 107.85 35.72 107.72 35.69C107.28 35.61 106.86 35.44 106.23 35.22ZM49.64 9.76999C49.49 9.71999 49.33 9.59999 49.2 9.62999C46.36 10.19 43.52 10.74 40.69 11.36C40.23 11.46 39.72 11.77 39.43 12.14C38.28 13.61 37.22 15.15 36.1 16.65C35.78 17.08 35.39 17.54 35.93 17.98C36.22 18.21 36.77 18.33 37.12 18.23C39.82 17.49 42.58 17.33 45.35 17.17C46.16 17.12 46.65 16.84 46.97 16.08C47.75 14.24 48.58 12.42 49.39 10.59C49.49 10.35 49.54 10.1 49.64 9.76999ZM68.54 17.21C68.54 17.32 68.48 17.54 68.55 17.7C69.15 18.97 69.63 20.35 71.31 20.67C71.99 20.8 72.68 21.07 73.29 21.4C74.46 22.04 75.47 21.87 76.52 21.13C77.47 20.46 77.65 20.27 77.2 19.26C76.52 17.73 75.72 16.25 75 14.74C74.55 13.8 73.84 13.23 72.86 12.94C72.43 12.81 71.96 12.73 71.58 12.51C70.51 11.87 69.57 11.84 68.48 12.61C67.57 13.25 67.56 13.1 67.9 14.26C68.17 15.19 69.15 15.99 68.54 17.21ZM44.8 18.38C44.79 18.34 44.79 18.3 44.78 18.27C42.17 18.69 39.56 19.06 36.96 19.54C35.69 19.77 35.59 20.07 36.21 21.24C36.69 22.15 37.29 23 37.82 23.88C38.16 24.45 38.5 25.03 37.78 25.58C37.34 25.92 37.45 26.34 37.55 26.81C37.64 27.23 37.73 27.71 37.6 28.1C37.39 28.74 37.92 28.88 38.18 29.19C38.25 29.28 38.69 29.23 38.72 29.15C39.59 26.89 41.42 25.62 43.38 24.42C43.93 24.08 44.38 23.42 44.64 22.8C45.15 21.62 45.45 20.35 45.91 19.15C46.15 18.52 45.98 18.33 45.37 18.37C45.19 18.39 45 18.38 44.8 18.38ZM85.9 48.59C86.02 48.56 86.5 48.55 86.87 48.35C88.68 47.39 90.23 46.23 90.06 43.82C90.02 43.18 89.96 42.71 89.34 42.41C87.31 41.44 85.3 40.43 83.26 39.48C82.73 39.23 82.43 39.54 82.4 40.13C82.3 41.8 82.17 43.47 82.07 45.14C82.02 46.08 82.01 47.03 81.99 47.97C82.99 48.16 83.99 48.36 84.99 48.54C85.18 48.57 85.37 48.56 85.9 48.59ZM54.51 9.47999V9.48999C53.86 9.48999 53.22 9.52999 52.57 9.47999C51.59 9.40999 51.02 9.82999 50.66 10.74C50.2 11.87 49.59 12.94 49.12 14.07C48.77 14.93 48.54 15.84 48.26 16.73C49.09 16.78 49.92 16.82 50.75 16.89C51.58 16.96 52.42 17.06 53.25 17.12C53.65 17.15 54.05 17.1 54.04 16.55C54.02 14.99 54.91 14.08 56.21 13.41C56.58 13.22 57.05 12.87 57.12 12.52C57.3 11.6 57.29 10.65 57.36 9.70999C56.6 9.63999 55.85 9.55999 55.09 9.48999C54.9 9.45999 54.7 9.47999 54.51 9.47999ZM75.75 81.64C76.29 81.34 76.7 81.15 77.07 80.9C82.41 77.34 86.84 72.89 90.23 67.42C90.35 67.23 90.36 66.97 90.42 66.74C90.22 66.85 89.98 66.91 89.84 67.07C87.09 70.11 83.84 72.52 80.51 74.89C78.4 76.4 76.48 78.31 75.83 81.06C75.79 81.19 75.79 81.34 75.75 81.64ZM56.01 21.3C56.12 19.07 55.58 18.48 53.63 18.37C52.09 18.29 50.55 18.23 49.01 18.11C48.14 18.04 47.47 18.28 47.17 19.14C46.83 20.11 46.54 21.09 46.24 22.08C46.17 22.3 46.2 22.55 46.19 22.78C46.43 22.74 46.68 22.72 46.91 22.64C49.61 21.68 52.28 21.33 54.92 22.83C55.46 23.14 55.79 22.87 55.89 22.33C55.98 21.9 56 21.45 56.01 21.3ZM81.08 41.13C81.09 41.28 81.08 41.15 81.07 41.02C81.05 40.02 81.03 40.01 80.13 40.26C77.91 40.88 76.27 42 76.18 44.58C76.17 44.96 75.96 45.32 75.9 45.7C75.68 47.09 75.85 47.28 77.33 47.46C77.97 47.54 78.59 47.7 79.23 47.78C80.36 47.91 80.64 47.75 80.75 46.61C80.92 44.88 80.97 43.14 81.08 41.13ZM42.65 9.38999C44.75 9.06999 46.72 8.66999 48.71 8.50999C50.24 8.38999 51.24 7.78999 51.81 6.36999C51.97 5.96999 52.33 5.63999 52.62 5.28999C53.11 4.68999 53.62 4.10999 54.11 3.49999C54.21 3.37999 54.21 3.17999 54.25 3.01999C54.13 2.98999 54 2.91999 53.88 2.93999C53.5 3.00999 53.13 3.09999 52.75 3.18999C48.82 4.14999 45.55 6.27999 42.54 8.88999C42.45 8.96999 42.4 9.09999 42.34 9.20999C42.47 9.28999 42.61 9.36999 42.65 9.38999ZM35.43 11.37C35.34 11.28 35.56 11.62 35.65 11.59C37.34 11.01 39.1 10.67 40.45 9.27999C41.74 7.93999 43.2 6.75999 44.64 5.57999C45.38 4.97999 46.26 4.53999 47.07 4.01999C47.16 3.95999 47.2 3.83999 47.27 3.74999C47.15 3.70999 47.03 3.62999 46.91 3.64999C46.6 3.69999 46.28 3.75999 45.98 3.85999C42.73 4.93999 39.69 6.42999 36.85 8.35999C35.86 9.03999 35.2 9.75999 35.43 11.37ZM65.32 10.24C61.42 10.79 58.36 12.86 55.27 14.83C54.58 15.27 54.56 16.39 55.02 17.12C55.21 17.42 55.43 17.57 55.8 17.3C57.42 16.14 59.05 14.98 60.71 13.87C61.4 13.4 62.14 12.99 62.91 12.66C64.03 12.18 65.19 11.82 66.33 11.38C66.49 11.32 66.61 11.16 66.75 11.05C66.6 10.87 66.47 10.62 66.28 10.52C65.94 10.36 65.55 10.21 65.32 10.24ZM72.6 11.18C72.12 10.61 71.7 10.13 71.29 9.62999C69.34 7.24999 66.92 5.47999 64.13 4.20999C63.99 4.14999 63.79 4.21999 63.61 4.21999C63.64 4.32999 63.64 4.45999 63.69 4.55999C64.29 5.90999 64.87 7.26999 65.52 8.59999C65.7 8.96999 66.04 9.39999 66.41 9.52999C68.29 10.19 70.2 10.76 72.1 11.34C72.21 11.38 72.38 11.25 72.6 11.18ZM54.64 8.32999C54.64 8.30999 54.64 8.28999 54.65 8.26999C55.36 8.26999 56.06 8.24999 56.77 8.27999C57.42 8.30999 57.73 7.94999 57.82 7.38999C58.03 6.05999 58.22 4.72999 58.35 3.39999C58.42 2.62999 58.17 2.49999 57.44 2.80999C55.85 3.48999 54.67 4.63999 53.7 6.02999C53.24 6.69999 52.82 7.40999 52.39 8.09999C53.13 8.17999 53.88 8.24999 54.64 8.32999ZM90.83 34.84C90.77 35 90.66 35.14 90.67 35.27C90.8 36.94 90.98 38.6 91.07 40.27C91.15 41.63 91.79 42.53 92.98 43.15C93.51 43.43 93.91 43.54 94.36 43.11C94.82 42.68 95.48 42.32 95.12 41.52C94.09 39.22 92.95 36.98 91.23 35.1C91.15 35.03 91.03 34.97 90.83 34.84ZM59.03 7.68999C58.83 8.15999 59.22 8.32999 59.72 8.40999C60.98 8.61999 62.24 8.83999 63.51 9.00999C64.2 9.09999 64.29 8.60999 64.04 8.14999C63.27 6.74999 62.49 5.34999 61.62 4.00999C61.36 3.60999 60.83 3.36999 60.39 3.10999C59.95 2.83999 59.68 3.00999 59.61 3.51999C59.43 4.86999 59.24 6.19999 59.03 7.68999ZM13.69 35.42C13.96 35.29 14.13 35.21 14.3 35.13C15.29 34.66 16.26 34.16 17.26 33.73C17.97 33.43 18.33 32.97 18.55 32.21C19.01 30.67 19.62 29.19 20.16 27.67C20.22 27.51 20.17 27.32 20.17 27.14C20.01 27.2 19.83 27.24 19.7 27.33C17.6 28.78 16.05 30.75 14.67 32.85C14.25 33.49 13.96 34.21 13.64 34.91C13.59 35.04 13.67 35.21 13.69 35.42ZM80.36 14.74C80.23 14.57 80.09 14.36 79.91 14.18C78.88 13.12 77.92 11.96 76.79 11.02C74.91 9.46999 72.91 8.05999 70.94 6.61999C70.78 6.49999 70.49 6.54999 70.26 6.51999C70.38 6.71999 70.47 6.94999 70.63 7.12999C71.68 8.33999 72.94 9.42999 73.77 10.77C75.26 13.18 77.92 13.67 80.04 15.04C80.1 15.08 80.25 15.01 80.35 14.96C80.37 14.95 80.35 14.85 80.36 14.74ZM85.05 22.24C84.83 22.3 84.66 22.29 84.59 22.37C83.77 23.25 82.95 24.13 82.19 25.06C82.09 25.18 82.25 25.7 82.43 25.84C83.52 26.62 84.66 27.34 85.77 28.1C86.31 28.47 86.58 28 86.93 27.79C87.32 27.57 87.42 27.28 87.22 26.83C86.62 25.49 86.06 24.12 85.47 22.77C85.38 22.56 85.18 22.4 85.05 22.24ZM23.86 28.25C24.11 27.44 23.43 26.76 22.95 26.01C22.65 25.55 22.41 25.52 22.19 26.06C21.83 26.95 21.45 27.84 21.11 28.74C20.72 29.76 20.32 30.78 20.01 31.82C19.81 32.5 20.13 32.76 20.84 32.64C23.15 32.23 23.38 31.99 23.74 29.62C23.8 29.23 23.81 28.85 23.86 28.25ZM89.8 39.46C89.83 39.46 89.85 39.45 89.88 39.45C89.72 38.31 89.57 37.17 89.4 36.03C89.32 35.48 89.01 35.45 88.59 35.71C87.39 36.45 86.19 37.18 84.99 37.92C84.33 38.34 84.36 38.56 85.11 38.93C86.55 39.62 87.99 40.31 89.43 41C89.92 41.24 89.96 41.02 89.89 40.6C89.84 40.23 89.83 39.84 89.8 39.46ZM111.47 23.96C111.47 23.93 111.47 23.9 111.46 23.87C110.5 23.87 109.53 23.85 108.57 23.89C108.42 23.9 108.12 24.29 108.16 24.36C108.74 25.42 109.32 26.48 110 27.48C110.33 27.97 110.62 28.03 110.73 27.23C110.82 26.6 110.96 25.59 111.78 25.64C112.7 25.69 113.03 25.21 113.47 24.65C113.59 24.5 113.88 24.48 114.09 24.4C114.15 24.57 114.32 24.78 114.26 24.9C113.81 25.93 114.53 25.77 115.09 25.71C115.91 25.62 116.29 25.18 116.17 24.46C116.05 23.75 115.65 23.56 114.92 23.67C113.78 23.83 112.62 23.86 111.47 23.96ZM39.96 4.80999C39.59 4.87999 39.34 4.88999 39.12 4.97999C34.93 6.53999 31.1 8.74999 27.59 11.52C27.42 11.66 27.31 11.88 27.18 12.06C27.42 12.06 27.69 12.12 27.9 12.04C29.22 11.53 30.53 11.01 31.83 10.45C32.24 10.28 32.61 10.01 32.98 9.75999C35.04 8.33999 37.1 6.90999 39.16 5.47999C39.32 5.36999 39.5 5.28999 39.66 5.17999C39.73 5.11999 39.78 5.01999 39.96 4.80999ZM76.01 52.77C75.82 53.41 76 53.56 76.62 53.3C77.45 52.96 78.28 52.6 79.09 52.2C79.88 51.81 80.55 50.22 80.3 49.43C80.25 49.29 80.05 49.12 79.91 49.1C78.96 48.95 78 48.82 77.05 48.72C76.48 48.66 76.28 48.95 76.26 49.52C76.22 50.61 76.1 51.69 76.01 52.77ZM17.72 35.29C17.61 35.25 17.4 35.11 17.25 35.15C15.48 35.67 14 36.68 12.69 37.95C12.51 38.12 12.38 38.37 12.29 38.6C12.05 39.2 12.35 39.69 12.99 39.61C13.81 39.51 14.62 39.27 15.44 39.1C17.21 38.73 17.21 38.74 17.52 37.01C17.6 36.5 17.64 35.99 17.72 35.29ZM96.42 40.07C95.99 38.01 95.56 35.87 95.08 33.74C94.97 33.25 94.71 32.78 94.45 32.34C94.36 32.19 93.97 32.04 93.87 32.11C93.23 32.54 92.6 32.99 92.06 33.54C91.93 33.67 92.1 34.23 92.27 34.49C93.02 35.61 93.86 36.66 94.6 37.79C95.09 38.54 95.46 39.37 95.89 40.16C95.98 40.32 96.1 40.47 96.21 40.62C96.27 40.47 96.33 40.32 96.42 40.07ZM22.8 33.7C22.66 33.65 22.46 33.52 22.26 33.53C20.14 33.61 19.1 34.59 18.82 36.72C18.77 37.1 18.69 37.47 18.6 37.85C18.48 38.36 18.66 38.59 19.18 38.48C20.32 38.24 22.86 35 22.8 33.7ZM59.16 26.07C58.85 26.79 59 27.73 59.44 28.73C60.06 30.12 59.97 30.16 61.35 29.66C61.53 29.59 61.72 29.53 61.89 29.45C62.45 29.19 63 28.91 63.55 28.64C63.11 28.39 62.55 28.23 62.24 27.86C61.33 26.79 60.52 25.63 59.67 24.51C59.56 24.36 59.43 24.23 59.3 24.09C59.25 24.26 59.17 24.43 59.16 24.61C59.15 25 59.16 25.38 59.16 26.07ZM80.05 16.73C79.73 16.48 79.38 16.15 78.97 15.91C78.2 15.46 77.4 15.07 76.62 14.66C76.92 15.44 77.22 16.23 77.53 17.01C77.58 17.13 77.63 17.25 77.69 17.36C78.08 18.06 78.47 18.75 78.87 19.45C79.23 18.67 79.6 17.88 79.96 17.1C79.98 17.04 79.99 16.97 80.05 16.73ZM16.39 28.62C16.44 28.58 16.5 28.55 16.55 28.51C18.07 27.21 19.57 25.89 21.12 24.62C21.78 24.08 21.5 23.58 21.13 23.12C20.66 22.54 20.34 23.1 20.06 23.39C19.52 23.95 19 24.52 18.52 25.13C17.73 26.15 16.99 27.2 16.23 28.25C16.18 28.32 16.23 28.48 16.24 28.59C16.25 28.61 16.34 28.61 16.39 28.62ZM70.04 23.67C69.99 23.68 69.93 23.69 69.88 23.7C69.96 24.04 70.04 24.38 70.12 24.72C70.51 24.6 70.93 24.52 71.3 24.35C71.65 24.19 71.96 23.96 72.27 23.73C72.62 23.47 72.96 23.18 73.3 22.91C72.88 22.66 72.47 22.38 72.03 22.16C71.75 22.02 71.43 21.95 71.11 21.87C70.02 21.61 69.8 21.8 69.95 22.91C69.98 23.16 70.01 23.42 70.04 23.67ZM19.91 21.56C19.77 21.15 19.64 20.85 19.57 20.55C19.44 19.98 19.17 20.17 18.98 20.47C17.91 22.21 16.85 23.96 15.81 25.71C15.73 25.84 15.81 26.07 15.81 26.25C15.96 26.19 16.15 26.17 16.24 26.06C17.32 24.81 18.4 23.56 19.46 22.3C19.67 22.07 19.79 21.77 19.91 21.56ZM86.68 21.74C86.63 21.74 86.58 21.73 86.52 21.73C86.53 21.91 86.51 22.1 86.57 22.25C87.07 23.44 87.57 24.63 88.12 25.79C88.24 26.04 88.66 26.41 88.73 26.37C89.16 26.11 89.56 25.77 89.9 25.39C89.97 25.31 89.81 24.92 89.66 24.76C88.78 23.81 87.88 22.89 86.98 21.97C86.9 21.88 86.78 21.82 86.68 21.74ZM81.09 26.7C81.04 26.86 80.94 27.02 80.95 27.18C80.99 29.2 81.63 29.68 83.54 29.17C83.66 29.14 83.79 29.11 83.9 29.05C84.25 28.84 84.32 28.57 83.96 28.34C83.15 27.83 82.33 27.34 81.51 26.86C81.39 26.78 81.26 26.76 81.09 26.7ZM87.95 19.37C87.81 19.48 87.6 19.57 87.55 19.72C87.46 19.98 87.35 20.38 87.48 20.52C88.43 21.64 89.44 22.71 90.44 23.79C90.52 23.88 90.65 23.93 90.75 24C90.76 23.83 90.83 23.62 90.75 23.5C89.93 22.2 89.1 20.92 88.26 19.64C88.2 19.53 88.08 19.47 87.95 19.37ZM37.19 12.77C37.04 12.71 36.87 12.58 36.76 12.61C36.1 12.83 35.46 13.08 34.82 13.35C34.31 13.56 34.22 14.02 34.4 14.46C34.55 14.84 34.85 15.16 35.09 15.51C35.34 15.24 35.61 14.99 35.84 14.7C36.23 14.2 36.6 13.68 36.97 13.17C37.04 13.07 37.09 12.95 37.19 12.77ZM59.79 9.69999C59.6 9.74999 59.05 9.73999 58.96 9.93999C58.74 10.44 58.73 11.03 58.63 11.58C59.09 11.5 59.54 11.42 59.99 11.34C60.05 11.33 60.1 11.28 60.16 11.25C60.77 10.86 61.38 10.46 61.99 10.07C61.32 9.94999 60.65 9.83999 59.79 9.69999ZM77.92 9.59999C77.7 9.70999 77.61 9.75999 77.51 9.79999C77.58 9.90999 77.62 10.03 77.71 10.12C78.61 11.03 79.52 11.94 80.44 12.83C80.57 12.95 80.82 12.94 81.02 12.98C81.05 12.74 81.2 12.38 81.1 12.29C80.04 11.36 78.95 10.47 77.92 9.59999ZM29.92 12.56C30.18 12.51 30.5 12.47 30.8 12.37C31.89 12.02 32.98 11.65 34.06 11.27C34.23 11.21 34.39 11.07 34.51 10.93C34.59 10.85 34.66 10.65 34.62 10.6C34.52 10.48 34.31 10.32 34.21 10.35C32.73 10.93 31.25 11.54 29.78 12.16C29.67 12.21 29.6 12.33 29.5 12.41C29.63 12.45 29.74 12.49 29.92 12.56ZM56.88 23.49C56.65 24.24 57.21 24.86 57.77 25.48C57.84 25.55 58.02 25.61 58.1 25.57C58.19 25.52 58.29 25.34 58.27 25.26C57.98 24.38 57.67 23.5 57.34 22.63C57.34 22.62 57.01 22.66 56.97 22.74C56.9 22.89 56.92 23.1 56.88 23.49ZM83.81 49.84C83.74 49.75 83.68 49.59 83.6 49.58C83.09 49.52 82.5 49.32 82.11 49.52C81.79 49.68 81.7 50.32 81.51 50.75C81.8 50.72 82.09 50.73 82.36 50.65C82.78 50.51 83.19 50.32 83.59 50.13C83.69 50.08 83.74 49.94 83.81 49.84ZM79.55 28.21C79.24 28.76 78.95 29.27 78.66 29.78C78.77 29.83 78.88 29.92 79 29.93C79.87 30 80.32 29.36 79.96 28.58C79.9 28.48 79.78 28.42 79.55 28.21ZM68.22 11.97C68 11.9 67.88 11.84 67.76 11.84C67.32 11.84 66.87 11.81 66.45 11.89C66.16 11.95 65.9 12.18 65.63 12.33C65.9 12.35 66.18 12.4 66.45 12.37C66.88 12.33 67.32 12.24 67.74 12.16C67.88 12.12 68.01 12.05 68.22 11.97ZM30.83 13.4C31.28 13.23 31.87 13.02 32.45 12.8C32.46 12.79 32.46 12.73 32.46 12.69C31.91 12.76 31.36 12.84 30.81 12.91C30.75 12.92 30.68 12.93 30.63 12.96C30.52 13.02 30.42 13.09 30.32 13.16C30.43 13.22 30.54 13.27 30.83 13.4ZM89.41 16.32C89.54 16.03 89.59 15.93 89.59 15.92C89.49 15.86 89.34 15.74 89.29 15.78C88.87 16.02 88.48 16.3 88.07 16.56C88.14 16.63 88.24 16.78 88.29 16.77C88.73 16.61 89.15 16.42 89.41 16.32ZM27.63 14.48C28.05 14.31 28.51 14.12 28.98 13.93C28.96 13.89 28.93 13.82 28.91 13.82C28.43 13.91 27.96 14.01 27.49 14.13C27.39 14.16 27.31 14.27 27.22 14.35C27.34 14.38 27.46 14.42 27.63 14.48ZM70.64 37.24C70.45 37.19 70.33 37.12 70.24 37.15C70.07 37.22 69.92 37.33 69.78 37.45C69.57 37.63 69.38 37.84 69.18 38.03C69.51 37.95 69.86 37.91 70.16 37.77C70.34 37.68 70.46 37.44 70.64 37.24ZM22.12 17.66C21.85 17.96 21.57 18.26 21.29 18.57C21.4 18.59 21.56 18.68 21.61 18.63C21.9 18.4 22.17 18.14 22.44 17.88C22.37 17.83 22.29 17.77 22.12 17.66ZM105.53 18.38C105.4 18.2 105.31 18.04 105.28 18.05C104.99 18.14 104.71 18.27 104.43 18.38C104.51 18.5 104.62 18.72 104.66 18.71C104.95 18.63 105.22 18.5 105.53 18.38ZM92.24 44.32C91.96 44.1 91.77 43.96 91.59 43.81C91.5 44.02 91.35 44.23 91.36 44.44C91.37 44.6 91.58 44.75 91.71 44.91C91.86 44.73 92.02 44.56 92.24 44.32ZM116.77 30.46C116.67 30.25 116.6 30.08 116.58 30.09C116.29 30.17 116.01 30.27 115.73 30.39C115.7 30.4 115.73 30.57 115.73 30.67C116.07 30.6 116.4 30.54 116.77 30.46ZM88.55 66.67C88.8 66.38 89.04 66.1 89.26 65.81C89.28 65.78 89.18 65.66 89.14 65.58C88.89 65.85 88.64 66.12 88.41 66.41C88.39 66.44 88.49 66.56 88.55 66.67Z" fill="#D8D8D8"/>
<path d="M65.21 31.04C65.3 31.23 65.37 31.4 65.45 31.56C65.83 32.29 66.23 33.01 66.6 33.74C66.7 33.94 66.69 34.18 66.74 34.41C66.51 34.38 66.23 34.43 66.07 34.31C65.65 34 64.65 34.28 64.9 33.23C64.9 33.21 64.53 33.1 64.33 33.04C64.1 32.98 63.86 32.94 63.63 32.9C63.77 32.69 63.88 32.47 64.04 32.28C64.32 31.95 64.64 31.65 64.94 31.33C65.03 31.26 65.1 31.17 65.21 31.04Z" fill="#D8D8D8"/>
<path d="M98.2 23.5C98.48 23.61 98.57 23.62 98.57 23.65C98.59 23.76 98.64 23.92 98.59 23.99C97.14 25.87 95.67 27.75 94.2 29.62C94.13 29.71 93.99 29.73 93.88 29.78C93.87 29.61 93.79 29.41 93.86 29.28C93.98 29.06 94.19 28.89 94.35 28.68C95.52 27.15 96.69 25.62 97.86 24.08C98.01 23.87 98.12 23.63 98.2 23.5Z" fill="#D8D8D8"/>
<path d="M88.01 32.95C87.84 33.01 87.69 33.11 87.57 33.08C86.51 32.89 86.04 32.06 85.65 31.19C85.6 31.08 85.75 30.83 85.88 30.72C85.94 30.67 86.21 30.74 86.3 30.84C86.82 31.46 87.32 32.1 87.83 32.73C87.86 32.79 87.9 32.84 88.01 32.95Z" fill="#D8D8D8"/>
<path d="M60.63 64.58C61.73 64.56 61.94 64.78 61.8 65.46C61.75 65.71 61.65 65.95 61.56 66.19C61.26 67.02 61.05 67.07 60.39 66.47C60.34 66.43 60.29 66.39 60.26 66.34C59.97 65.94 59.69 65.53 59.41 65.12C59.91 64.89 60.42 64.67 60.63 64.58Z" fill="#D8D8D8"/>
<path d="M56.85 34.5C56.83 35.6 56.77 35.68 55.65 35.91C55.4 35.96 55.15 36.04 54.9 36.05C54.35 36.08 53.39 36.24 53.33 36.08C53.05 35.33 53.66 34.77 54.21 34.4C54.71 34.06 55.39 34 55.96 33.77C56.67 33.47 56.91 33.72 56.85 34.5Z" fill="#D8D8D8"/>
<path d="M55.59 31.94C55.78 32.01 56.22 32.12 56.59 32.34C56.77 32.44 56.84 32.75 56.96 32.96C56.79 33.03 56.62 33.13 56.45 33.18C55.35 33.47 54.24 33.75 53.13 34.01C52.98 34.05 52.66 33.99 52.65 33.93C52.61 33.71 52.56 33.36 52.68 33.24C53.43 32.57 54.22 31.9 55.59 31.94Z" fill="#D8D8D8"/>
<path d="M31.59 23.56C31.36 23.45 31.19 23.37 31.02 23.29C31.1 23.13 31.14 22.87 31.28 22.81C32.03 22.46 32.8 22.11 33.59 21.86C33.75 21.81 34.19 22.13 34.24 22.35C34.29 22.54 34.02 22.96 33.81 23.03C33.08 23.27 32.31 23.4 31.59 23.56Z" fill="#D8D8D8"/>
<path d="M30.33 22.26C30.13 22.18 29.97 22.16 29.91 22.08C29.87 22.01 29.91 21.84 29.98 21.75C30.63 20.88 31.55 20.5 32.6 20.42C32.74 20.41 32.98 20.56 33.03 20.68C33.07 20.8 32.97 21.09 32.85 21.14C32 21.55 31.13 21.91 30.33 22.26Z" fill="#D8D8D8"/>
<path d="M34.39 42.33C34.52 42.44 35.05 42.68 35.06 42.94C35.09 43.46 34.84 43.99 34.68 44.51C34.67 44.55 34.39 44.57 34.36 44.52C33.98 43.9 33.62 43.27 33.25 42.64C33.41 42.55 33.55 42.44 33.72 42.38C33.84 42.33 33.97 42.35 34.39 42.33Z" fill="#D8D8D8"/>
<path d="M66.62 18.45C65.96 19.12 65.72 19.53 65.39 19.66C64.96 19.82 64.4401 19.77 63.9601 19.77C63.9201 19.77 63.81 19.34 63.86 19.3C64.46 18.9 65.07 18.5 65.72 18.18C65.88 18.1 66.18 18.31 66.62 18.45Z" fill="#D8D8D8"/>
<path d="M65.94 17.15C65.52 17.47 65.39 17.61 65.23 17.68C64.71 17.9 64.18 18.13 63.64 18.3C63.27 18.42 62.87 18.44 62.49 18.5C62.73 18.21 62.91 17.8 63.22 17.66C63.89 17.35 64.61 17.15 65.33 16.95C65.47 16.91 65.68 17.06 65.94 17.15Z" fill="#D8D8D8"/>
<path d="M108.84 42.42C107.73 42.45 107.35 41.63 106.96 40.82C106.94 40.78 107.13 40.57 107.18 40.59C108.09 40.89 108.78 41.39 108.81 42.46L108.84 42.42Z" fill="#D8D8D8"/>
<path d="M48.29 106.7C46.26 106.7 44.42 106.7 42.46 106.7C42.46 105.57 42.46 104.67 42.46 103.78C43.93 103.39 49.0301 103.33 51.7801 103.65C53.0701 107.33 50.62 112.13 46.48 113.98C41.87 116.04 36.09 114.22 33.74 109.96C31.31 105.55 32.59 100.28 36.66 97.55C41.05 94.6 47.33 95.71 50.02 99.68C49.19 100.28 48.3401 100.89 47.5301 101.48C43.6901 98.6 41.23 98.33 38.49 100.42C36.39 102.02 35.51 105.05 36.44 107.49C37.41 110.03 40.1 111.77 42.77 111.59C45.55 111.41 47.57 109.72 48.29 106.7ZM48.46 99.7C45.57 96.47 40.61 96.1 37.13 98.58C33.6 101.09 32.56 105.6 34.63 109.37C36.72 113.19 41.83 114.79 46.22 112.93C48.83 111.83 51.9 107.27 50.72 104.8C48.16 104.35 44.5801 104.47 43.4001 105.1C44.3301 105.95 45.43 105.48 46.41 105.57C47.5 105.67 48.6 105.64 49.7 105.66C49.38 111.05 43.49 114.63 38.62 111.65C35.13 109.51 33.9201 105.03 36.0301 101.56C38.2001 97.98 42.57 96.9 46.11 99.08C46.48 99.31 46.8 99.65 47.2 99.8C47.47 99.9 47.84 99.76 48.46 99.7Z" fill="#D8D8D8"/>
<path d="M2.69 109.35C4.09 110.07 5.15999 110.71 6.29999 111.19C7.80999 111.83 9.35999 111.68 10.86 111.1C12.43 110.5 12.74 109.91 12.54 108.04C11.77 107.13 10.69 106.91 9.56 106.72C7.9 106.45 6.22998 106.19 4.59998 105.8C2.54998 105.3 1.12 104.06 0.940002 101.83C0.760002 99.67 1.86001 98.17 3.64001 97.07C7.01001 94.99 13.41 95.65 15.64 98.65C15.33 98.98 15.03 99.36 14.68 99.68C14.32 100.01 13.91 100.3 13.42 100.68C13.01 100.42 12.59 100.18 12.21 99.89C10.77 98.83 9.12997 98.6 7.40997 98.79C6.97997 98.84 6.54002 98.92 6.15002 99.11C5.28002 99.53 4.53003 100.1 4.53003 101.2C4.53003 102.04 5.20001 102.65 6.45001 102.94C7.30001 103.14 8.17003 103.26 9.03003 103.4C10.01 103.56 11.01 103.68 11.99 103.88C14.08 104.3 15.79 105.29 16.32 107.5C16.84 109.67 15.93 111.47 14.31 112.82C10.54 115.96 3.67001 115.21 0.570007 111.36C1.27001 110.69 2.01 110 2.69 109.35ZM13.91 98.68C13.69 98.44 13.57 98.2 13.36 98.1C11.16 97.03 8.86001 96.59 6.45001 97.18C5.17001 97.49 3.95001 97.93 3.01001 98.96C1.32001 100.84 1.83001 103.53 4.14001 104.55C4.59001 104.75 5.09002 104.85 5.58002 104.94C7.36002 105.26 9.15999 105.5 10.93 105.87C12.68 106.24 13.69 107.29 13.8 108.66C13.92 110.06 13.12 111.27 11.56 112.01C9.59 112.95 7.57001 113 5.57001 112.15C4.83001 111.84 4.16 111.36 3.44 110.99C2.91 110.72 2.48 110.75 2.31 111.47C2.42 111.61 2.50001 111.78 2.64001 111.89C5.34001 114.01 9.80998 114.32 12.73 112.56C13.71 111.97 14.49 111.18 14.93 110.08C15.62 108.37 15.13 105.89 12.76 105.27C11.5 104.94 10.19 104.79 8.90997 104.52C7.62997 104.25 6.29998 104.07 5.09998 103.6C3.15998 102.83 2.77003 100.36 4.34003 99C4.97003 98.45 5.83001 98.01 6.64001 97.87C8.57001 97.53 10.5 97.53 12.24 98.69C12.7 98.98 13.19 99.46 13.91 98.68Z" fill="#D8D8D8"/>
<path d="M76.43 96.43C77.28 96.43 78.19 96.43 79.32 96.43C79.37 97.1 79.45 97.76 79.45 98.42C79.46 100.86 79.38 103.29 79.46 105.72C79.5 106.82 79.68 107.97 80.07 109C80.76 110.81 82.26 111.67 84.17 111.73C86.04 111.79 87.76 110.69 88.42 108.93C88.74 108.07 88.9 107.12 88.93 106.2C89.01 103.64 88.98 101.08 88.99 98.52C88.99 97.91 88.99 97.29 88.99 96.52C90.13 96.52 91.07 96.52 92.15 96.52C92.22 97.03 92.33 97.5 92.33 97.98C92.34 100.91 92.32 103.85 92.31 106.78C92.3 110.13 90.99 112.76 87.85 114.16C84.76 115.54 81.71 115.23 79.01 113.18C77.37 111.94 76.25 110.21 76.2 108.09C76.11 104.35 76.19 100.6 76.2 96.86C76.21 96.76 76.31 96.65 76.43 96.43ZM91.03 97.57C90.91 97.53 90.78 97.49 90.66 97.46C90.46 97.76 90.14 98.05 90.1 98.37C90.01 99.11 90.06 99.87 90.05 100.62C90.02 102.93 90.09 105.25 89.93 107.55C89.77 109.91 87.95 112.2 85.83 112.64C83.24 113.18 81.46 112.77 79.67 110.52C78.76 109.37 78.35 107.98 78.35 106.49C78.35 104.11 78.35 101.74 78.34 99.37C78.34 98.78 78.28 98.18 78.24 97.51C77.78 97.58 77.56 97.61 77.22 97.66C77.22 101.21 76.96 104.71 77.29 108.17C77.64 111.84 80.97 114.1 84.88 113.86C88.51 113.64 91.35 110.52 91.22 107.24C91.11 104.49 91.23 101.74 91.22 98.99C91.21 98.5 91.1 98.04 91.03 97.57Z" fill="#D8D8D8"/>
<path d="M115.57 114.59C113.97 114.59 112.73 114.59 111.43 114.59C110.17 112.73 108.92 110.87 107.64 108.98C106.31 108.98 105.03 108.98 103.5 108.98C103.5 110.86 103.5 112.63 103.5 114.53C102.29 114.53 101.33 114.53 100.13 114.53C100.13 112.68 100.13 110.91 100.13 109.07C99.33 108.91 98.74 108.79 98.03 108.64C98.03 107.71 98.03 106.82 98.03 105.83C98.68 105.71 99.26 105.59 100.04 105.45C100.04 102.49 100.04 99.58 100.04 96.6C100.65 96.5 101.06 96.39 101.48 96.38C103.85 96.36 106.22 96.36 108.6 96.38C109.16 96.38 109.72 96.44 110.27 96.55C113.16 97.11 114.94 98.87 115.34 101.58C115.65 103.7 114.87 106.43 112.06 107.73C111.84 107.83 111.66 108 111.29 108.26C112.66 110.28 114 112.28 115.57 114.59ZM101.28 97.65C100.99 100.75 101.37 103.67 101.04 106.4C100.35 106.98 99.33 106.36 98.98 107.52C99.7 107.69 100.34 107.83 101.15 108.02C101.15 108.97 101.08 109.9 101.17 110.81C101.26 111.72 100.72 112.78 101.66 113.54C101.86 113.45 102.06 113.41 102.07 113.35C102.22 111.58 102.36 109.81 102.51 107.92C104.48 107.92 106.38 107.92 108.27 107.92C108.78 108.68 109.24 109.35 109.69 110.03C110.35 111.01 111 112 111.66 112.98C112.05 113.56 112.52 113.82 113.3 113.24C112.05 111.37 110.81 109.53 109.49 107.56C110.19 107.3 110.71 107.12 111.21 106.92C113.32 106.09 114.56 104.06 114.28 101.89C113.98 99.56 112.51 97.91 110.2 97.71C107.78 97.5 105.34 97.55 102.91 97.5C102.41 97.5 101.93 97.59 101.28 97.65Z" fill="#D8D8D8"/>
<path d="M70.42 96.52C70.47 97.03 70.53 97.46 70.54 97.89C70.55 98.32 70.5 98.75 70.45 99.42C68.76 99.49 67.12 99.55 65.38 99.62C64.98 101.29 65.22 102.92 65.17 104.51C65.12 106.13 65.16 107.76 65.15 109.38C65.15 111 65.15 112.62 65.15 114.39C64.06 114.39 63.11 114.39 61.9 114.39C61.71 109.53 61.96 104.69 61.79 99.61C60.07 99.53 58.43 99.45 56.64 99.36C56.64 98.37 56.64 97.47 56.64 96.58C57.96 96.19 68.01 96.12 70.42 96.52ZM57.74 97.62C57.73 97.79 57.72 97.95 57.71 98.12C59.3 98.86 61.11 98.06 62.87 98.65C62.9 99.26 62.95 99.87 62.95 100.48C62.96 104.42 62.95 108.35 62.96 112.29C62.96 112.63 63.11 112.97 63.21 113.38C63.55 113.28 63.77 113.22 64.15 113.11C64.15 110.66 64.13 108.23 64.16 105.8C64.19 103.39 64.07 100.98 64.28 98.41C65.31 98.41 66.12 98.46 66.92 98.4C67.71 98.34 68.63 98.74 69.35 97.88C69.14 97.71 69.01 97.51 68.87 97.51C65.44 97.46 62 97.43 58.57 97.41C58.29 97.4 58.01 97.54 57.74 97.62Z" fill="#D8D8D8"/>
<path d="M22.96 96.29C24.13 96.29 25.05 96.29 25.93 96.29C26.34 97.75 26.44 111.54 26.07 114.23C25.1 114.59 24.09 114.55 22.96 114.23C22.96 108.31 22.96 102.4 22.96 96.29ZM24.28 97.43C23.83 98.99 23.79 111.47 24.22 113.16C24.44 113.15 24.67 113.13 25.02 113.11C25.06 112.51 25.13 111.96 25.13 111.42C25.14 109.42 25.13 107.43 25.14 105.43C25.14 103.18 25.16 100.94 25.15 98.69C25.15 98.15 25.28 97.51 24.28 97.43Z" fill="#D8D8D8"/>
<path d="M102.47 98.59C104.88 98.59 107.06 98.45 109.22 98.63C112.07 98.87 113.42 100.78 112.94 103.54C112.66 105.14 111.43 106.5 109.65 106.63C107.31 106.8 104.95 106.67 102.47 106.67C102.47 103.95 102.47 101.37 102.47 98.59ZM103.61 105.65C105.52 105.65 107.19 105.69 108.87 105.63C109.41 105.61 109.97 105.42 110.47 105.18C111.61 104.63 112.15 103.56 112.01 102.25C111.88 101.03 111.04 99.95 109.81 99.79C107.79 99.52 105.76 99.57 103.62 99.75C103.61 101.73 103.61 103.56 103.61 105.65Z" fill="#D8D8D8"/>
</svg>
