<svg width="151" height="35" viewBox="0 0 151 35" fill="none" xmlns="http://www.w3.org/2000/svg">
<path d="M99.4301 7.97995C99.4301 8.05995 104.06 0.159949 104.06 0.159949H57.47L49.27 14.3499L61.16 14.3199L49.91 34.41H74.0699L84.3101 14.54H93.75L83.66 34.41H106.83L109.29 30.1999H117.56L115.55 34.41H140.65C140.65 34.41 150.08 14.1399 150 14.0599C154.06 -3.22005 116.57 -3.72005 99.4301 7.97995ZM125.01 14.8099C125.01 14.8999 121.7 20.41 121.7 20.41H113.51L116.73 14.73C117.64 11.85 126.41 11.7599 125.01 14.8099Z" fill="white"/>
<path d="M47.0401 34.41L54.98 20.56H22.3101C19.9801 20.56 19.98 18.69 19.98 17.36C19.99 15.96 21.7901 14.43 23.1501 14.43L45.98 14.47L54.32 0.149963H22.21C2.18 1.46996 -8.83001 32.59 11.7 34.4L47.0401 34.41Z" fill="white"/>
</svg>
