<svg width="11" height="13" viewBox="0 0 11 13" fill="none" xmlns="http://www.w3.org/2000/svg">
<path d="M5.53998 3.52997C4.74998 3.52997 4.10999 4.16997 4.10999 4.95997C4.10999 5.74997 4.74998 6.38997 5.53998 6.38997C6.32998 6.38997 6.96997 5.74997 6.96997 4.95997C6.96997 4.16997 6.32998 3.52997 5.53998 3.52997Z" fill="#E6E6E6"/>
<path d="M5.53998 0.399963C2.88998 0.399963 0.75 2.54996 0.75 5.18996C0.75 7.44996 4.23001 11.53 5.26001 12.68C5.41001 12.85 5.67001 12.85 5.82001 12.68C6.85001 11.53 10.33 7.43996 10.33 5.18996C10.33 2.53996 8.18998 0.399963 5.53998 0.399963ZM5.53998 7.32996C4.22998 7.32996 3.16998 6.26996 3.16998 4.95996C3.16998 3.64996 4.22998 2.58996 5.53998 2.58996C6.84998 2.58996 7.90997 3.64996 7.90997 4.95996C7.90997 6.26996 6.84998 7.32996 5.53998 7.32996Z" fill="#E6E6E6"/>
</svg>
