<svg width="39" height="39" viewBox="0 0 39 39" fill="none" xmlns="http://www.w3.org/2000/svg">
<path d="M19.29 38.4999C29.6619 38.4999 38.0699 30.0918 38.0699 19.7199C38.0699 9.34803 29.6619 0.939941 19.29 0.939941C8.91813 0.939941 0.51001 9.34803 0.51001 19.7199C0.51001 30.0918 8.91813 38.4999 19.29 38.4999Z" fill="#F3F3F3"/>
<path d="M29.35 17.0299C29.35 14.5399 27.33 12.5199 24.84 12.5199H13.3101C10.8201 12.5199 8.80005 14.5399 8.80005 17.0299V22.3999C8.80005 24.8899 10.8201 26.9099 13.3101 26.9099H24.84C27.33 26.9099 29.35 24.8899 29.35 22.3999V17.0299ZM22.5601 20.1199L17.39 22.6799C17.19 22.7899 16.5 22.6399 16.5 22.4099V17.1599C16.5 16.9299 17.19 16.7799 17.4 16.8999L22.35 19.5899C22.56 19.7099 22.7701 20.0099 22.5601 20.1199Z" fill="#00A300"/>
</svg>
