<svg width="38" height="39" viewBox="0 0 38 39" fill="none" xmlns="http://www.w3.org/2000/svg">
<path d="M37.9399 19.7199C37.9399 9.34994 29.53 0.939941 19.16 0.939941C8.79003 0.939941 0.380005 9.34994 0.380005 19.7199C0.380005 29.0899 7.24998 36.8699 16.23 38.2699V25.1499H11.46V19.7199H16.23V15.5799C16.23 10.8699 19.0299 8.26994 23.3199 8.26994C25.3799 8.26994 27.52 8.63994 27.52 8.63994V13.2599H25.15C22.82 13.2599 22.09 14.7099 22.09 16.1899V19.7099H27.3L26.47 25.1399H22.09V38.2599C31.07 36.8599 37.9399 29.0899 37.9399 19.7199Z" fill="#F3F3F3"/>
<path d="M26.47 25.1499L27.3 19.7199H22.09V16.1999C22.09 14.7099 22.82 13.2699 25.15 13.2699H27.52V8.64991C27.52 8.64991 25.3699 8.27991 23.3199 8.27991C19.0299 8.27991 16.23 10.8799 16.23 15.5899V19.7299H11.46V25.1599H16.23V38.2799C17.19 38.4299 18.17 38.5099 19.16 38.5099C20.16 38.5099 21.14 38.4299 22.09 38.2799V25.1499H26.47Z" fill="#00A300"/>
</svg>
