<svg width="39" height="39" viewBox="0 0 39 39" fill="none" xmlns="http://www.w3.org/2000/svg">
<path d="M19.72 38.4999C30.0919 38.4999 38.5 30.0918 38.5 19.7199C38.5 9.34803 30.0919 0.939941 19.72 0.939941C9.34806 0.939941 0.939941 9.34803 0.939941 19.7199C0.939941 30.0918 9.34806 38.4999 19.72 38.4999Z" fill="#F3F3F3"/>
<path d="M25.55 12.61C24.84 12.61 24.26 13.19 24.26 13.9C24.26 14.61 24.84 15.19 25.55 15.19C26.26 15.19 26.84 14.61 26.84 13.9C26.85 13.19 26.27 12.61 25.55 12.61Z" fill="white"/>
<path d="M19.8101 14.2699C16.8201 14.2699 14.39 16.6999 14.39 19.6899C14.39 22.6799 16.8201 25.1099 19.8101 25.1099C22.8001 25.1099 25.23 22.6799 25.23 19.6899C25.24 16.6999 22.8001 14.2699 19.8101 14.2699ZM19.8101 23.1699C17.8901 23.1699 16.34 21.6099 16.34 19.6999C16.34 17.7799 17.9001 16.2299 19.8101 16.2299C21.7301 16.2299 23.28 17.7899 23.28 19.6999C23.29 21.6099 21.7301 23.1699 19.8101 23.1699Z" fill="#00A300"/>
<path d="M24.12 30.6999H15.33C11.68 30.6999 8.71997 27.7299 8.71997 24.0899V15.2999C8.71997 11.6499 11.69 8.68994 15.33 8.68994H24.12C27.77 8.68994 30.74 11.6599 30.74 15.2999V24.0899C30.74 27.7299 27.77 30.6999 24.12 30.6999ZM15.33 10.7499C12.82 10.7499 10.79 12.7899 10.79 15.2899V24.0799C10.79 26.5899 12.83 28.6199 15.33 28.6199H24.12C26.63 28.6199 28.66 26.5799 28.66 24.0799V15.2899C28.66 12.7799 26.62 10.7499 24.12 10.7499H15.33Z" fill="#00A300"/>
</svg>
