<svg width="14" height="11" viewBox="0 0 14 11" fill="none" xmlns="http://www.w3.org/2000/svg">
<path d="M1.69 0.779953L6.09998 5.78996C6.34998 6.06996 6.71003 6.23995 7.09003 6.23995C7.47003 6.23995 7.83002 6.07996 8.08002 5.78996L12.42 0.869957C12.46 0.829957 12.5 0.799951 12.54 0.769951C12.36 0.689951 12.15 0.639954 11.94 0.639954H2.23999C2.03999 0.639954 1.83997 0.679956 1.65997 0.759956C1.67997 0.769956 1.69 0.769953 1.69 0.779953Z" fill="#E6E6E6"/>
<path d="M13.22 1.34998C13.2 1.39998 13.17 1.44997 13.14 1.48997L8.79999 6.40998C8.36999 6.89998 7.74998 7.17998 7.09998 7.17998C6.44998 7.17998 5.83002 6.89998 5.40002 6.40998L0.98999 1.39998C0.97999 1.38998 0.969971 1.37998 0.969971 1.36998C0.829971 1.59998 0.75 1.85998 0.75 2.13998V8.91998C0.75 9.74998 1.42 10.42 2.25 10.42H11.95C12.78 10.42 13.45 9.74998 13.45 8.91998V2.13998C13.45 1.84998 13.36 1.57998 13.22 1.34998Z" fill="#E6E6E6"/>
</svg>
