<svg width="14" height="13" viewBox="0 0 14 13" fill="none" xmlns="http://www.w3.org/2000/svg">
<path fill-rule="evenodd" clip-rule="evenodd" d="M12.05 7.98003C11.51 7.65003 10.8 7.29003 10.16 7.55003C9.66999 7.75003 9.35 8.52003 9.04 8.91004C8.88 9.11003 8.68001 9.14003 8.43001 9.04003C6.58001 8.30003 5.17004 7.07003 4.15004 5.37003C3.98004 5.11003 4.00999 4.90003 4.21999 4.65003C4.52999 4.29003 4.91002 3.88003 5.00002 3.39003C5.08002 2.90003 4.85004 2.33003 4.65004 1.90003C4.39004 1.34003 4.10001 0.550029 3.55001 0.240029C3.04001 -0.0499707 2.35999 0.110035 1.90999 0.480035C1.11999 1.12003 0.740027 2.12003 0.760027 3.12003C0.760027 3.40003 0.800003 3.68003 0.860003 3.96003C1.02 4.62003 1.31999 5.23003 1.65999 5.81003C1.91999 6.25003 2.20002 6.68003 2.50002 7.09003C3.49002 8.43003 4.72003 9.60003 6.14003 10.47C6.85003 10.91 7.61999 11.29 8.40999 11.55C9.29999 11.84 10.09 12.15 11.05 11.97C12.05 11.78 13.05 11.16 13.44 10.19C13.56 9.90003 13.62 9.58003 13.55 9.28003C13.41 8.65003 12.56 8.28004 12.05 7.98003Z" fill="#E6E6E6"/>
</svg>
